<?xml version="1.0" encoding="UTF-8"?>
<svg version="1.1" xmlns="http://www.w3.org/2000/svg" width="500" height="500">
<path d="M0 0 C165 0 330 0 500 0 C500 165 500 330 500 500 C335 500 170 500 0 500 C0 335 0 170 0 0 Z " fill="#FEFEFE" transform="translate(0,0)"/>
<path d="M0 0 C4.91179528 1.76098127 9.03120413 4.94745126 11.375 9.71875 C13.20612661 16.40236214 13.23383142 24.26961369 10.3125 30.625 C7.75856532 34.85438829 4.70518344 37.43160552 0 39 C-12.23831324 40.15767828 -12.23831324 40.15767828 -17.125 36.8125 C-21.67403771 32.82646201 -23.67502925 28.43083873 -24.23828125 22.484375 C-24.41199685 16.08432651 -23.88909889 11.22894089 -20 6 C-13.89400532 -0.24618333 -8.50586152 -0.92733077 0 0 Z " fill="#090909" transform="translate(372,104)"/>
<path d="M0 0 C4.91179528 1.76098127 9.03120413 4.94745126 11.375 9.71875 C13.20612661 16.40236214 13.23383142 24.26961369 10.3125 30.625 C7.75856532 34.85438829 4.70518344 37.43160552 0 39 C-12.23831324 40.15767828 -12.23831324 40.15767828 -17.125 36.8125 C-21.67403771 32.82646201 -23.67502925 28.43083873 -24.23828125 22.484375 C-24.41199685 16.08432651 -23.88909889 11.22894089 -20 6 C-13.89400532 -0.24618333 -8.50586152 -0.92733077 0 0 Z " fill="#090909" transform="translate(173,104)"/>
<path d="M0 0 C2 2 2 2 2 5 C0.34765625 6.25390625 0.34765625 6.25390625 -1.9375 7.5625 C-13.41433568 14.93145729 -19.56628572 25.68477513 -24.18359375 38.2109375 C-25.2860264 43.32749097 -25.21322326 48.22214808 -25.125 53.4375 C-25.11597656 54.45521484 -25.10695313 55.47292969 -25.09765625 56.52148438 C-25.07424698 59.01457156 -25.041457 61.50715859 -25 64 C-30.47840933 63.32005558 -33.7963939 62.74669239 -38 59 C-42.89379738 52.53503609 -43.90337536 45.85797246 -43.60546875 37.87890625 C-41.81092475 26.38224696 -34.56222868 15.74819406 -25.359375 8.75292969 C-7.02480165 -4.33884808 -7.02480165 -4.33884808 0 0 Z " fill="#050505" transform="translate(67,61)"/>
<path d="M0 0 C4.07306931 0.28416763 5.59673065 0.56570993 8.4375 3.625 C10.845686 6.38619588 10.845686 6.38619588 14.5 6.0625 C18.06479051 5.22006376 18.06479051 5.22006376 20.625 2.875 C23 1 23 1 25.5 0.875 C29.20436007 2.54196203 31.38787918 4.30199223 33 8 C34.20554955 15.88911623 33.64758516 22.52097505 29.38671875 29.328125 C28 31 28 31 25 33 C21.671875 32.9765625 21.671875 32.9765625 17.75 32.625 C13.85018424 32.28826892 10.13636747 31.99421813 6.22265625 32.16015625 C3 32 3 32 1.07421875 30.64453125 C0.61660156 30.03996094 0.15898438 29.43539062 -0.3125 28.8125 C-0.78300781 28.22082031 -1.25351563 27.62914062 -1.73828125 27.01953125 C-5.51370663 20.97651291 -5.92699145 14.97493567 -5 8 C-3.68792554 5.00554436 -2.07462234 2.51918427 0 0 Z " fill="#030303" transform="translate(113,116)"/>
<path d="M0 0 C3.01845478 1.98943611 4.24624275 3.5543593 5.75 6.8125 C5.75 7.4725 5.75 8.1325 5.75 8.8125 C4.84507813 9.08513672 4.84507813 9.08513672 3.921875 9.36328125 C-1.01375246 10.80192855 -1.01375246 10.80192855 -5.25 13.5625 C-8.65980988 15.69363118 -12.43212332 14.48960206 -16.25 13.8125 C-16.37375 15.111875 -16.4975 16.41125 -16.625 17.75 C-16.97882175 20.98494168 -17.49289639 24.0859849 -18.25 27.25 C-19.24572765 31.43205612 -19.68008047 35.5613193 -20.00390625 39.84375 C-20.25 41.8125 -20.25 41.8125 -21.25 42.8125 C-22.99467283 43.13450337 -24.74611339 43.42019643 -26.5 43.6875 C-30.65913589 44.41129767 -33.8813772 45.11760176 -37.25 47.8125 C-37.58 48.4725 -37.91 49.1325 -38.25 49.8125 C-38.91 49.8125 -39.57 49.8125 -40.25 49.8125 C-40.88286593 39.51788085 -40.26291111 32.05148554 -35.25 22.8125 C-34.73050781 21.8534375 -34.21101563 20.894375 -33.67578125 19.90625 C-27.01392239 8.60127739 -14.27995044 -5.2176742 0 0 Z " fill="#040404" transform="translate(86.25,69.1875)"/>
<path d="M0 0 C9 0 9 0 11.29101562 1.98779297 C12.09055664 3.35121826 12.09055664 3.35121826 12.90625 4.7421875 C13.504375 5.72574219 14.1025 6.70929688 14.71875 7.72265625 C15.3065625 8.76292969 15.894375 9.80320312 16.5 10.875 C17.11875 11.90753906 17.7375 12.94007812 18.375 14.00390625 C20.33525484 17.29249166 22.28736121 20.57472242 24 24 C24.33 16.08 24.66 8.16 25 0 C27.64 0 30.28 0 33 0 C33 12.87 33 25.74 33 39 C24 39 24 39 21.92431641 37.2434082 C21.48780762 36.43734131 21.05129883 35.63127441 20.6015625 34.80078125 C19.85326172 33.48110352 19.85326172 33.48110352 19.08984375 32.13476562 C18.60644531 31.20341797 18.12304688 30.27207031 17.625 29.3125 C17.11839844 28.40048828 16.61179688 27.48847656 16.08984375 26.54882812 C15.14410249 24.84227402 14.2122312 23.12790202 13.29931641 21.40356445 C11.94221754 18.89311004 10.46826116 16.44710193 9 14 C8.67 22.25 8.34 30.5 8 39 C5.36 39 2.72 39 0 39 C0 26.13 0 13.26 0 0 Z " fill="#111111" transform="translate(229,104)"/>
<path d="M0 0 C21.78571429 0 21.78571429 0 26.875 4.75 C28.52016849 8.04033698 28.44565624 10.37108493 28 14 C26.20573857 16.69139215 24.27765827 18.72234173 22 21 C22.598125 21.639375 23.19625 22.27875 23.8125 22.9375 C27.35259327 27.89363058 29 32.91683822 29 39 C26.69 39 24.38 39 22 39 C21.66226563 38.08476562 21.32453125 37.16953125 20.9765625 36.2265625 C20.53054687 35.03804687 20.08453125 33.84953125 19.625 32.625 C19.18414062 31.44164062 18.74328125 30.25828125 18.2890625 29.0390625 C17.2049658 25.95506554 17.2049658 25.95506554 15 24 C12.69 23.67 10.38 23.34 8 23 C8 28.28 8 33.56 8 39 C5.36 39 2.72 39 0 39 C0 26.13 0 13.26 0 0 Z " fill="#0E0E0E" transform="translate(193,104)"/>
<path d="M0 0 C0.495 2.97 0.495 2.97 1 6 C-0.10794922 6.41958984 -0.10794922 6.41958984 -1.23828125 6.84765625 C-16.76247443 12.98237554 -29.48125667 21.69657709 -37 37 C-39.54731091 42.92374654 -40.49158726 48.59399948 -41 55 C-45.4053751 53.04205551 -47.36598914 50.64724985 -49.2578125 46.35546875 C-51.57965214 38.98668294 -50.49169214 33.20945969 -47.0625 26.375 C-39.15279449 12.95873895 -27.9037926 4.97573238 -13 1 C-8.60214252 0.14880178 -4.47405693 -0.10912334 0 0 Z " fill="#050505" transform="translate(59,49)"/>
<path d="M0 0 C20.74285714 0 20.74285714 0 26.375 5.1875 C28.49251745 8.85243405 28.6405708 11.91636115 28 16 C26.66608102 20.15868857 25.67648967 21.58582265 21.9375 23.875 C17.3599407 25.55474816 12.81338353 25.19781028 8 25 C8 29.62 8 34.24 8 39 C5.36 39 2.72 39 0 39 C0 26.13 0 13.26 0 0 Z " fill="#111111" transform="translate(392,104)"/>
<path d="M0 0 C3.3 0 6.6 0 10 0 C13.39384257 8.90106695 16.69449169 17.83281853 19.875 26.8125 C20.1851001 27.6777832 20.4952002 28.54306641 20.81469727 29.43457031 C21.10014404 30.24635742 21.38559082 31.05814453 21.6796875 31.89453125 C21.93476074 32.61487549 22.18983398 33.33521973 22.45263672 34.07739258 C23 36 23 36 23 39 C20.36 39 17.72 39 15 39 C14.34 36.03 13.68 33.06 13 30 C7.72 30 2.44 30 -3 30 C-3.66 32.97 -4.32 35.94 -5 39 C-7.64 39 -10.28 39 -13 39 C-10.80308143 30.23835822 -7.8960957 21.79594071 -4.8125 13.3125 C-4.34401174 12.01381225 -3.8759104 10.71498485 -3.40820312 9.41601562 C-2.27591396 6.27595598 -1.13977817 3.13734732 0 0 Z " fill="#090909" transform="translate(454,104)"/>
<path d="M0 0 C2.64 0 5.28 0 8 0 C8.01458252 0.86278564 8.02916504 1.72557129 8.04418945 2.61450195 C8.10527754 5.81849647 8.17943549 9.02184625 8.26245117 12.2253418 C8.29568549 13.61129377 8.32372226 14.99738061 8.34643555 16.38354492 C8.38000617 18.37706843 8.43388 20.37021741 8.48828125 22.36328125 C8.51446533 23.56251221 8.54064941 24.76174316 8.56762695 25.99731445 C8.7653261 28.96505097 8.7653261 28.96505097 10.31713867 30.88745117 C13.21316662 32.80203109 15.65090058 32.41129291 19 32 C21.94068602 29.81913362 22.88972896 28.61092918 23.54589844 24.97558594 C23.57731934 23.24743652 23.57731934 23.24743652 23.609375 21.484375 C23.64160156 20.23398438 23.67382812 18.98359375 23.70703125 17.6953125 C23.72121094 16.39335938 23.73539062 15.09140625 23.75 13.75 C23.77964844 12.43257812 23.80929687 11.11515625 23.83984375 9.7578125 C23.91055388 6.50514657 23.96324786 3.25319807 24 0 C26.64 0 29.28 0 32 0 C32.12467036 3.983314 32.21483313 7.96585506 32.2746582 11.95068359 C32.31182827 13.96362253 32.3753997 15.97601837 32.43945312 17.98828125 C32.52473081 24.77638506 32.48301715 29.93786982 28.47338867 35.58203125 C24.16897407 39.72453995 19.29566699 39.43618072 13.5871582 39.43823242 C9.905253 39.33606979 7.11721752 39.13581714 4.1875 36.8125 C0.43051312 31.9820883 -0.24883162 28.24238874 -0.1953125 22.16796875 C-0.18886719 20.87568359 -0.18242187 19.58339844 -0.17578125 18.25195312 C-0.15907327 16.8971327 -0.14214342 15.54231499 -0.125 14.1875 C-0.11496003 12.81315749 -0.10583596 11.43880797 -0.09765625 10.06445312 C-0.07411242 6.70945683 -0.04122567 3.35481801 0 0 Z " fill="#111111" transform="translate(271,104)"/>
<path d="M0 0 C4.27449168 2.88528189 4.27449168 2.88528189 5.5 4.6875 C5.5 6.75 5.5 6.75 4.5 8.6875 C1.9375 9.9375 1.9375 9.9375 -0.5 10.6875 C-0.974375 10.0275 -1.44875 9.3675 -1.9375 8.6875 C-5.19983042 6.14129089 -7.25847652 6.21135649 -11.28125 6.15625 C-14.44785013 6.91445003 -15.59189398 8.06225346 -17.5 10.6875 C-18.09624817 14.01570056 -18.09624817 14.01570056 -17.9375 17.625 C-17.93556641 19.43291016 -17.93556641 19.43291016 -17.93359375 21.27734375 C-17.47523494 24.88227385 -16.67037552 26.80604791 -14.5 29.6875 C-11.44306678 31.21596661 -8.87015453 30.91992445 -5.5 30.6875 C-2.3149643 28.92734869 -1.66703028 28.18859084 -0.5 24.6875 C4.25 25.5625 4.25 25.5625 6.5 26.6875 C5.9237038 30.57749932 4.13263979 32.82920537 1.5 35.6875 C-3.78843678 39.12076761 -10.4953873 38.5788097 -16.5 37.6875 C-21.0928158 35.19289023 -24.68041748 31.64129164 -26.5 26.6875 C-27.15923696 19.1790479 -27.7390448 11.1873687 -23.5 4.6875 C-17.0456148 -2.01377426 -8.64163407 -3.24061278 0 0 Z " fill="#0A0A0A" transform="translate(337.5,105.3125)"/>
<path d="M0 0 C0.125 2.875 0.125 2.875 0 6 C-2.48822412 8.48822412 -3.2587981 8.21512282 -6.6875 8.3125 C-24.09120424 9.6371914 -38.16868848 18.67571717 -50 31 C-49.69023315 21.552111 -46.25902248 13.73596105 -39.375 7.125 C-34.47809948 3.20559978 -28.86424997 1.07929085 -23 -1 C-21.783125 -1.433125 -20.56625 -1.86625 -19.3125 -2.3125 C-12.02700529 -3.82458381 -6.63017011 -3.38561878 0 0 Z " fill="#080808" transform="translate(60,36)"/>
<path d="M0 0 C0.433125 0.928125 0.86625 1.85625 1.3125 2.8125 C2.72038627 5.47184073 3.76123556 7.08105905 6 9 C5.67 9.33 5.34 9.66 5 10 C4.62401062 14.98185928 4.94359849 17.14627635 8 21 C8.0625 23 8.0625 23 7 25 C2.97589308 28.62169623 -0.46049754 29.75574673 -5.75 29.5234375 C-9.75144643 28.59254545 -12.4243203 26.11079322 -15 23 C-17.31456061 19.10627428 -17.6648576 15.44623519 -17 11 C-14.1508758 2.9868382 -8.5387482 -0.68309986 0 0 Z " fill="#060606" transform="translate(64,118)"/>
<path d="M0 0 C3.56196344 0.06167902 4.74950281 0.10024596 7.6875 2.25 C10.16976556 5.91943605 10.31469507 8.25006258 10.375 12.6875 C10.40078125 13.81800781 10.4265625 14.94851562 10.453125 16.11328125 C10.09071811 19.71577832 9.29590973 21.50919627 7.125 24.375 C3.44817905 26.82621397 0.39579037 27.19918762 -3.875 26.375 C-7.39940272 23.67545749 -9.09349252 21.69302618 -9.875 17.375 C-10.35562151 11.69072634 -10.63393559 7.00138226 -6.875 2.375 C-4.38459058 -0.11540942 -3.44345643 0.05108986 0 0 Z " fill="#F8F8F8" transform="translate(365.875,110.625)"/>
<path d="M0 0 C3.56196344 0.06167902 4.74950281 0.10024596 7.6875 2.25 C10.16976556 5.91943605 10.31469507 8.25006258 10.375 12.6875 C10.40078125 13.81800781 10.4265625 14.94851562 10.453125 16.11328125 C10.09071811 19.71577832 9.29590973 21.50919627 7.125 24.375 C3.44817905 26.82621397 0.39579037 27.19918762 -3.875 26.375 C-7.39940272 23.67545749 -9.09349252 21.69302618 -9.875 17.375 C-10.35562151 11.69072634 -10.63393559 7.00138226 -6.875 2.375 C-4.38459058 -0.11540942 -3.44345643 0.05108986 0 0 Z " fill="#F8F8F8" transform="translate(166.875,110.625)"/>
<path d="M0 0 C5.8022175 -0.36263859 9.63999211 0.74315457 15 3 C15 2.01 15 1.02 15 0 C16.32 0 17.64 0 19 0 C19.2475 1.5159375 19.2475 1.5159375 19.5 3.0625 C20.73344611 7.45885436 23.44880554 9.32221539 26.8984375 12.11328125 C32.78411381 17.39726203 36.74338977 24.49392436 37.1953125 32.4296875 C37.17210937 33.56664062 37.14890625 34.70359375 37.125 35.875 C37.10695312 37.02742188 37.08890625 38.17984375 37.0703125 39.3671875 C37.04710937 40.23601562 37.02390625 41.10484375 37 42 C35.02 41.34 33.04 40.68 31 40 C30.98582031 39.23816406 30.97164062 38.47632813 30.95703125 37.69140625 C30.52792848 28.40191117 28.23671084 22.19236876 21.8125 15.4375 C19.36839843 12.78168982 19.36839843 12.78168982 17 13 C16.34 14.65 15.68 16.3 15 18 C13.68 18 12.36 18 11 18 C11.33 15.03 11.66 12.06 12 9 C8.04 7.68 4.08 6.36 0 5 C0 3.35 0 1.7 0 0 Z " fill="#0F0F0F" transform="translate(107,71)"/>
<path d="M0 0 C1.93359375 1.046875 1.93359375 1.046875 2.77734375 2.98828125 C3.02047745 6.19156776 1.96350156 7.62408181 -0.06640625 10.046875 C-3.06640625 10.984375 -3.06640625 10.984375 -6.06640625 11.046875 C-7.05640625 10.386875 -8.04640625 9.726875 -9.06640625 9.046875 C-16.0608155 8.52844517 -23.16977944 8.7332318 -30.06640625 10.046875 C-29.50266738 6.57424357 -28.45789658 5.13370435 -25.75390625 2.921875 C-25.15964844 2.42429687 -24.56539062 1.92671875 -23.953125 1.4140625 C-16.46363282 -4.01310575 -8.46418605 -2.37683852 0 0 Z " fill="#0A0A0A" transform="translate(67.06640625,19.953125)"/>
<path d="M0 0 C2.31 0 4.62 0 7 0 C7 12.54 7 25.08 7 38 C4.69 38 2.38 38 0 38 C0 25.46 0 12.92 0 0 Z " fill="#000000" transform="translate(428,105)"/>
<path d="M0 0 C14.68885502 0.72115826 29.34073515 1.82977981 44 3 C44 4.32 44 5.64 44 7 C34.55803259 7.22889618 25.26712011 6.34813691 15.875 5.5 C14.23441014 5.35507042 12.59378532 5.21053597 10.953125 5.06640625 C6.96833238 4.71549164 2.98405093 4.35923337 -1 4 C-0.67 2.68 -0.34 1.36 0 0 Z " fill="#1A1A1A" transform="translate(75,90)"/>
<path d="M0 0 C1.60875 -0.04125 3.2175 -0.0825 4.875 -0.125 C5.77992188 -0.14820312 6.68484375 -0.17140625 7.6171875 -0.1953125 C10 0 10 0 12 2 C12.25 5.5 12.25 5.5 12 9 C10 11 10 11 7.6171875 11.1953125 C6.71226562 11.17210938 5.80734375 11.14890625 4.875 11.125 C2.461875 11.063125 2.461875 11.063125 0 11 C0 7.37 0 3.74 0 0 Z " fill="#FEFEFE" transform="translate(400,111)"/>
<path d="M0 0 C1.81242052 -0.02687279 3.62495233 -0.04633715 5.4375 -0.0625 C6.44683594 -0.07410156 7.45617187 -0.08570312 8.49609375 -0.09765625 C11 0 11 0 12 1 C12.25 4.4375 12.25 4.4375 12 8 C7.7975546 10.80163026 4.99895065 10.14489712 0 10 C0 6.7 0 3.4 0 0 Z " fill="#F9F9F9" transform="translate(201,111)"/>
<path d="M0 0 C0.75 1.6875 0.75 1.6875 1 4 C-0.5 6.8125 -0.5 6.8125 -3 9 C-6.25 8.9375 -6.25 8.9375 -10 8 C-10.73605469 7.8246875 -11.47210938 7.649375 -12.23046875 7.46875 C-14.15987606 7.00432629 -16.08082555 6.50504591 -18 6 C-13.51074979 0.91218309 -6.58640365 -0.50664643 0 0 Z " fill="#0D0D0D" transform="translate(79,8)"/>
<path d="M0 0 C-0.53239608 4.52536666 -2.27123273 7.38839627 -5 11 C-8.22791555 13.1519437 -9.28400809 13.20086443 -13 13 C-13.10811523 9.83762946 -12.98322856 7.02251742 -12 4 C-8.32536145 0.79625334 -4.79813296 0 0 0 Z " fill="#101010" transform="translate(141,54)"/>
<path d="M0 0 C-0.5957078 4.76566239 -2.27634153 9.05539119 -5 13 C-9.6875 16 -9.6875 16 -13 16 C-13.06310015 11.94356202 -13.09355481 8.36624071 -10.48046875 5.1015625 C-7.27148834 2.33170573 -4.44263075 0 0 0 Z " fill="#131313" transform="translate(143,37)"/>
<path d="M0 0 C0.66 0 1.32 0 2 0 C3.99817211 4.12122998 4.58066416 7.43763877 4 12 C1.6875 14.5 1.6875 14.5 -1 16 C-1.99 15.67 -2.98 15.34 -4 15 C-5.45887389 12.08225221 -5.36823233 10.25271895 -5 7 C-3.61710425 4.42513068 -2.04499018 2.0945657 0 0 Z " fill="#111111" transform="translate(132,23)"/>
<path d="M0 0 C3.4564579 1.69868658 6.31725654 3.16821524 9 6 C9.61994003 9.47166416 9.60460499 12.79079002 8 16 C4.05732174 14.72129354 2.13389355 13.57303105 0 10 C-0.29296875 7.421875 -0.29296875 7.421875 -0.1875 4.75 C-0.16042969 3.85796875 -0.13335937 2.9659375 -0.10546875 2.046875 C-0.07066406 1.37140625 -0.03585938 0.6959375 0 0 Z " fill="#0A0A0A" transform="translate(115,50)"/>
<path d="M0 0 C4.43703218 2.49492137 6.37483889 4.03422993 8 9 C7.94434355 12.38492409 7.54756288 15.66184556 7 19 C4.09144949 17.37506999 1.93634741 15.73223958 0 13 C-0.62003073 8.60768149 -0.41189925 4.40666818 0 0 Z " fill="#080808" transform="translate(119,33)"/>
<path d="M0 0 C0.66 0 1.32 0 2 0 C2.67220351 1.93558599 3.33758077 3.87354372 4 5.8125 C4.556875 7.43091797 4.556875 7.43091797 5.125 9.08203125 C6 12 6 12 6 15 C2.7 15 -0.6 15 -4 15 C-3.43179252 9.54520815 -2.05362055 5.08940744 0 0 Z " fill="#E3E3E3" transform="translate(458,113)"/>
<path d="M0 0 C2.875 0.75 2.875 0.75 3.875 1.75 C4.0625 4.6875 4.0625 4.6875 3.875 7.75 C1.875 9.75 1.875 9.75 -1.125 10 C-4.125 9.75 -4.125 9.75 -6.125 7.75 C-6.4883156 4.91613833 -6.4818671 3.34477849 -5 0.875 C-3.125 -0.25 -3.125 -0.25 0 0 Z " fill="#0C0C0C" transform="translate(96.125,101.25)"/>
<path d="M0 0 C2.4375 0.75 2.4375 0.75 4.4375 2.75 C3.88194444 7.30555556 3.88194444 7.30555556 2.4375 8.75 C-1 8.9375 -1 8.9375 -4.5625 8.75 C-5.2225 8.09 -5.8825 7.43 -6.5625 6.75 C-6.375 4.25 -6.375 4.25 -5.5625 1.75 C-2.5625 -0.25 -2.5625 -0.25 0 0 Z " fill="#0F0F0F" transform="translate(95.5625,129.25)"/>
<path d="M0 0 C2.5 0.25 2.5 0.25 4.5 2.25 C4.75 4.75 4.75 4.75 4.5 7.25 C2.5 9.25 2.5 9.25 0 9.5 C-2.5 9.25 -2.5 9.25 -4.5 7.25 C-4.75 4.75 -4.75 4.75 -4.5 2.25 C-2.5 0.25 -2.5 0.25 0 0 Z " fill="#0D0D0D" transform="translate(78.5,126.75)"/>
<path d="M0 0 C2.375 0.6875 2.375 0.6875 3.375 1.6875 C3.5625 4.125 3.5625 4.125 3.375 6.6875 C1.375 8.6875 1.375 8.6875 -1.125 8.9375 C-3.625 8.6875 -3.625 8.6875 -5.625 6.6875 C-5.9375 4.1875 -5.9375 4.1875 -5.625 1.6875 C-2.625 -0.3125 -2.625 -0.3125 0 0 Z " fill="#0C0C0C" transform="translate(111.625,102.3125)"/>
<path d="M0 0 C3.0625 0.1875 3.0625 0.1875 5.0625 2.1875 C4.50694444 6.74305556 4.50694444 6.74305556 3.0625 8.1875 C0.0625 8.3125 0.0625 8.3125 -2.9375 8.1875 C-3.9375 7.1875 -3.9375 7.1875 -4.0625 4.1875 C-3.89838889 0.24883333 -3.89838889 0.24883333 0 0 Z " fill="#060606" transform="translate(82.9375,141.8125)"/>
<path d="M0 0 C2.5 0.25 2.5 0.25 4.5 2.25 C4.6875 4.8125 4.6875 4.8125 4.5 7.25 C3.5 8.25 3.5 8.25 0 8.375 C-3.5 8.25 -3.5 8.25 -4.5 7.25 C-4.6875 4.8125 -4.6875 4.8125 -4.5 2.25 C-2.5 0.25 -2.5 0.25 0 0 Z " fill="#060606" transform="translate(79.5,99.75)"/>
<path d="M0 0 C1.65 0 3.3 0 5 0 C5 4.95 5 9.9 5 15 C3.68 14.67 2.36 14.34 1 14 C0.67 9.38 0.34 4.76 0 0 Z " fill="#212121" transform="translate(124,102)"/>
<path d="M0 0 C2.5625 0.1875 2.5625 0.1875 4.5625 2.1875 C4.00694444 6.74305556 4.00694444 6.74305556 2.5625 8.1875 C0.125 8.375 0.125 8.375 -2.4375 8.1875 C-3.0975 7.5275 -3.7575 6.8675 -4.4375 6.1875 C-3.71780303 0.28598485 -3.71780303 0.28598485 0 0 Z " fill="#0A0A0A" transform="translate(73.4375,112.8125)"/>
<path d="M0 0 C1.32 0 2.64 0 4 0 C4.33 4.62 4.66 9.24 5 14 C3.68 14 2.36 14 1 14 C0.67 9.38 0.34 4.76 0 0 Z " fill="#0C0C0C" transform="translate(97,73)"/>
<path d="M0 0 C3.53571429 0.53571429 3.53571429 0.53571429 5 2 C5.125 4.5 5.125 4.5 5 7 C4 8 4 8 1.5625 8.1875 C-1 8 -1 8 -3 6 C-2.63318342 3.06546739 -2.13562754 2.13562754 0 0 Z " fill="#121212" transform="translate(86,115)"/>
<path d="M0 0 C3.125 0.375 3.125 0.375 6 1 C5.42415568 3.38564077 4.77772405 5.66682784 4 8 C2.35 7.67 0.7 7.34 -1 7 C-1.625 4.625 -1.625 4.625 -2 2 C-1.34 1.34 -0.68 0.68 0 0 Z " fill="#181818" transform="translate(99,116)"/>
<path d="M0 0 C1.02104551 0.97850195 2.0206121 1.97980427 3 3 C3 3.33 3 3.66 3 4 C0.36 4 -2.28 4 -5 4 C-3.35 2.68 -1.7 1.36 0 0 Z " fill="#131313" transform="translate(103,140)"/>
</svg>
